# xmcd
#
# Track frame offsets:
#	150
#	21784
#	59118
#	83919
#	99568
#	124056
#	140316
#	169648
#	210205
#	242670
#	261601
#	287753
#
# Disc length: 4158 seconds
#
# Revision: 1
# Processed by: cddbd v1.5.1PL2 Copyright (c) Steve Scherf et al.
# Submitted via: audiograbber 1.83.01
#
DISCID=ab103c0c
DTITLE=Bob Dylan - MTV unplugged
DYEAR=1900
DGENRE=
TTITLE0=Tombstone Blues 
TTITLE1=Shooting Star 
TTITLE2=All Along the Watchtower 
TTITLE3=The Times They Are A-Changin' 
TTITLE4=John Brown 
TTITLE5=Desolation Row 
TTITLE6=Rainy Day Women #12 and 35 
TTITLE7=Love Minus Zero - o limit
TTITLE8=Dignity 
TTITLE9=Knockin' On Heaven's Door 
TTITLE10=Like A Rolling Stone 
TTITLE11=With God On Our Side 
EXTD=
EXTT0=
EXTT1=
EXTT2=
EXTT3=
EXTT4=
EXTT5=
EXTT6=
EXTT7=
EXTT8=
EXTT9=
EXTT10=
EXTT11=
PLAYORDER=
